<?xml version="1.0" encoding="iso-8859-1"?>
<!-- Uploaded to: SVG Repo, www.svgrepo.com, Generator: SVG Repo Mixer Tools -->
<svg version="1.1" id="Capa_1" xmlns="http://www.w3.org/2000/svg" xmlns:xlink="http://www.w3.org/1999/xlink" 
	 viewBox="0 0 424.607 424.607" xml:space="preserve">
<g>
	<rect x="181.413" y="180.981" style="fill:#D5C7C1;" width="61.781" height="5.252"/>
	<rect x="146.451" y="372.353" style="fill:#D5C7C1;" width="11.428" height="1.926"/>
	<polygon style="fill:#BBA795;" points="222.311,309.159 212.661,286.393 203.202,309.03 212.851,331.797 	"/>
	<rect x="150.536" y="133.407" style="fill:#C6CDC9;" width="24.134" height="26.152"/>
	<rect x="183.669" y="133.407" style="fill:#C6CDC9;" width="24.134" height="26.152"/>
	<polygon style="fill:#BBA795;" points="207.749,274.804 198.098,252.035 188.638,274.672 198.29,297.441 	"/>
	<path style="fill:#BBA795;" d="M198.348,320.645l-5.777,13.825c4.143,2.592,8.824,4.395,13.84,5.193L198.348,320.645z"/>
	<path style="fill:#D5C7C1;" d="M189.469,39.132c-0.455-2.678-1.288-5.306-2.563-8.061c-1.579-3.41-3.701-6.457-6.244-9.027
		c-43.305,13.464-72.834,52.118-74.686,97.136h18.882C126.812,80.777,153.611,48.827,189.469,39.132z"/>
	<path style="fill:#BBA795;" d="M175.196,306.839c0.904,8.367,4.587,15.909,10.101,21.694l8.14-19.479l-9.651-22.77L175.196,306.839
		z"/>
	<polygon style="fill:#BBA795;" points="249.632,210.363 247.871,210.363 249.632,214.52 	"/>
	<path style="fill:#BBA795;" d="M241.476,263.297l8.156-19.519v-6.242c-0.044-0.088-0.093-0.172-0.132-0.264l-8.215-19.381
		l-9.46,22.639L241.476,263.297z"/>
	<rect x="105.79" y="164.283" style="fill:#D5C7C1;" width="19.028" height="148.715"/>
	<rect x="99.33" y="321.998" style="fill:#CCB683;" width="32.328" height="9.052"/>
	<rect x="99.141" y="146.232" style="fill:#D19B6F;" width="32.328" height="9.051"/>
	<rect x="216.803" y="133.407" style="fill:#C6CDC9;" width="24.135" height="26.152"/>
	<rect x="105.79" y="358.102" style="fill:#BBA795;" width="19.028" height="57.506"/>
	<rect x="99.33" y="340.05" style="fill:#CCB683;" width="32.328" height="9.052"/>
	<path style="fill:#BB844C;" d="M195.073,27.291c1.539,3.323,2.591,6.611,3.196,9.945c4.571-0.739,9.258-1.13,14.034-1.13
		c4.776,0,9.463,0.391,14.034,1.13c0.606-3.333,1.658-6.622,3.196-9.945c2.635-5.694,6.467-10.61,11.151-14.423
		C231.489,10.299,221.979,9,212.303,9c-9.675,0-19.184,1.3-28.381,3.87C188.606,16.682,192.438,21.597,195.073,27.291z"/>
	<path style="fill:#CCB683;" d="M212.303,68.269c-25.439,0-46.401,19.531-48.681,44.385h97.361
		C258.705,87.8,237.742,68.269,212.303,68.269z"/>
	<rect x="249.938" y="133.407" style="fill:#C6CDC9;" width="24.134" height="26.152"/>
	<rect x="133.819" y="401.806" style="fill:#BBA795;" width="156.97" height="13.802"/>
	<rect x="99.141" y="128.18" style="fill:#D19B6F;" width="32.328" height="9.053"/>
	<rect x="299.789" y="358.102" style="fill:#BBA795;" width="19.027" height="57.506"/>
	<rect x="293.327" y="321.998" style="fill:#CCB683;" width="32.328" height="9.052"/>
	<rect x="293.138" y="340.05" style="fill:#CCB683;" width="32.328" height="9.052"/>
	<path style="fill:#BB844C;" d="M284.138,159.783V123.68c0-2.485,2.015-4.5,4.5-4.5h2.094
		c-2.341-41.237-36.614-74.073-78.429-74.073s-76.096,32.835-78.437,74.073h2.102c2.485,0,4.5,2.015,4.5,4.5v36.104
		c0,2.485-2.015,4.5-4.5,4.5h-2.15v148.715h2.15c2.485,0,4.5,2.015,4.5,4.5v36.104c0,2.485-2.015,4.5-4.5,4.5h-2.15v34.704h156.97
		v-34.704h-2.15c-2.485,0-4.5-2.015-4.5-4.5v-36.104c0-2.485,2.015-4.5,4.5-4.5h2.15V164.283h-2.15
		C286.153,164.283,284.138,162.268,284.138,159.783z M212.303,59.269c31.918,0,57.886,25.967,57.886,57.885
		c0,2.485-2.015,4.5-4.5,4.5H158.917c-2.485,0-4.5-2.015-4.5-4.5C154.417,85.235,180.385,59.269,212.303,59.269z M141.536,128.907
		c0-2.485,2.015-4.5,4.5-4.5h132.536c2.485,0,4.5,2.015,4.5,4.5v35.152c0,2.485-2.015,4.5-4.5,4.5H146.036
		c-2.485,0-4.5-2.015-4.5-4.5V128.907z M252.194,176.481v14.252c0,2.485-2.015,4.5-4.5,4.5h-70.781c-2.485,0-4.5-2.015-4.5-4.5
		v-14.252c0-2.485,2.015-4.5,4.5-4.5h70.781C250.179,171.981,252.194,173.996,252.194,176.481z M166.878,378.779
		c0,2.485-2.015,4.5-4.5,4.5h-20.428c-2.485,0-4.5-2.015-4.5-4.5v-10.926c0-2.485,2.015-4.5,4.5-4.5h20.428
		c2.485,0,4.5,2.015,4.5,4.5V378.779z M146.667,302.804v-96.94c0-2.485,2.015-4.5,4.5-4.5h122.271c2.485,0,4.5,2.015,4.5,4.5v96.94
		c0,36.191-29.444,65.636-65.636,65.636S146.667,338.995,146.667,302.804z M287.157,367.853v10.926c0,2.485-2.015,4.5-4.5,4.5
		h-20.428c-2.485,0-4.5-2.015-4.5-4.5v-10.926c0-2.485,2.015-4.5,4.5-4.5h20.428C285.142,363.353,287.157,365.368,287.157,367.853z"
		/>
	<rect x="266.729" y="372.353" style="fill:#D5C7C1;" width="11.428" height="1.926"/>
	<rect x="299.789" y="164.283" style="fill:#D5C7C1;" width="19.027" height="148.715"/>
	<path style="fill:#D5C7C1;" d="M235.138,39.133c35.858,9.693,62.657,41.644,64.612,80.047h18.881
		c-1.852-45.019-31.382-83.673-74.687-97.136c-2.542,2.569-4.664,5.616-6.242,9.026C236.426,33.826,235.593,36.454,235.138,39.133z"
		/>
	<path style="fill:#EDD570;" d="M268.939,210.363h-10.307v92.44c0,25.546-20.783,46.329-46.329,46.329s-46.329-20.783-46.329-46.329
		v-92.44h-10.307v92.44c0,31.229,25.406,56.636,56.636,56.636s56.636-25.406,56.636-56.636V210.363z"/>
	<rect x="293.138" y="146.232" style="fill:#D19B6F;" width="32.328" height="9.051"/>
	<rect x="293.138" y="128.18" style="fill:#D19B6F;" width="32.328" height="9.053"/>
	<polygon style="fill:#BBA795;" points="212.602,263.19 222.061,240.555 212.41,217.786 202.951,240.422 	"/>
	<polygon style="fill:#BBA795;" points="234.676,210.363 219.04,210.363 226.914,228.94 	"/>
	<polygon style="fill:#BBA795;" points="249.632,267.122 246.388,274.886 249.632,282.54 	"/>
	<path style="fill:#BBA795;" d="M227.223,320.748l-7.814,18.698c4.875-0.943,9.413-2.837,13.416-5.482L227.223,320.748z"/>
	<polygon style="fill:#BBA795;" points="236.622,274.91 226.973,252.143 217.514,274.779 227.164,297.546 	"/>
	<path style="fill:#BBA795;" d="M249.534,305.371l-7.999-18.872l-9.459,22.636l7.916,18.676
		C245.442,321.782,248.947,313.972,249.534,305.371z"/>
	<polygon style="fill:#BBA795;" points="205.757,210.363 190.21,210.363 198.039,228.833 	"/>
	<path style="fill:#BBA795;" d="M193.186,240.446l-9.65-22.769l-8.466,20.261c-0.027,0.066-0.065,0.124-0.096,0.188v4.309
		l8.752,20.648L193.186,240.446z"/>
	<polygon style="fill:#BBA795;" points="174.974,210.363 174.974,214.821 176.836,210.363 	"/>
	<polygon style="fill:#BBA795;" points="174.974,265.499 174.974,284.025 178.872,274.696 	"/>
	<path style="fill:#7C5F53;" d="M158.917,121.653h106.771c2.485,0,4.5-2.015,4.5-4.5c0-31.918-25.968-57.885-57.886-57.885
		s-57.886,25.967-57.886,57.885C154.417,119.639,156.432,121.653,158.917,121.653z M212.303,68.269
		c25.438,0,46.401,19.531,48.681,44.385h-97.361C165.902,87.8,186.865,68.269,212.303,68.269z"/>
	<path style="fill:#7C5F53;" d="M176.913,171.981c-2.485,0-4.5,2.015-4.5,4.5v14.252c0,2.485,2.015,4.5,4.5,4.5h70.781
		c2.485,0,4.5-2.015,4.5-4.5v-14.252c0-2.485-2.015-4.5-4.5-4.5H176.913z M243.194,186.233h-61.781v-5.252h61.781V186.233z"/>
	<path style="fill:#7C5F53;" d="M146.036,168.56h132.536c2.485,0,4.5-2.015,4.5-4.5v-35.152c0-2.485-2.015-4.5-4.5-4.5H146.036
		c-2.485,0-4.5,2.015-4.5,4.5v35.152C141.536,166.545,143.55,168.56,146.036,168.56z M249.938,133.407h24.134v26.152h-24.134
		V133.407z M216.803,133.407h24.135v26.152h-24.135V133.407z M183.669,133.407h24.134v26.152h-24.134V133.407z M150.536,133.407
		h24.134v26.152h-24.134V133.407z"/>
	<path style="fill:#7C5F53;" d="M162.378,363.353h-20.428c-2.485,0-4.5,2.015-4.5,4.5v10.926c0,2.485,2.015,4.5,4.5,4.5h20.428
		c2.485,0,4.5-2.015,4.5-4.5v-10.926C166.878,365.368,164.864,363.353,162.378,363.353z M157.878,374.279h-11.428v-1.926h11.428
		V374.279z"/>
	<path style="fill:#7C5F53;" d="M262.229,363.353c-2.485,0-4.5,2.015-4.5,4.5v10.926c0,2.485,2.015,4.5,4.5,4.5h20.428
		c2.485,0,4.5-2.015,4.5-4.5v-10.926c0-2.485-2.015-4.5-4.5-4.5H262.229z M278.157,374.279h-11.428v-1.926h11.428V374.279z"/>
	<path style="fill:#7C5F53;" d="M329.966,119.18h-2.329c-0.893-23.528-8.777-45.812-22.947-64.7
		c-13.119-17.488-31.246-31.053-51.579-38.771c2.244-1.016,3.261-3.649,2.265-5.909c-0.489-1.11-1.375-1.918-2.416-2.344l0.002-0.01
		C239.977,2.505,226.298,0,212.303,0c-13.983,0-27.654,2.502-40.632,7.437l0.003,0.007c-1.054,0.423-1.95,1.237-2.443,2.358
		c-0.995,2.261,0.02,4.892,2.264,5.908c-20.332,7.719-38.458,21.283-51.577,38.771c-14.17,18.889-22.055,41.172-22.947,64.7h-2.329
		c-2.485,0-4.5,2.015-4.5,4.5v36.104c0,2.485,2.015,4.5,4.5,4.5h2.149v148.715h-2.149c-2.485,0-4.5,2.015-4.5,4.5v36.104
		c0,2.485,2.015,4.5,4.5,4.5h2.149v62.006c0,2.485,2.015,4.5,4.5,4.5h222.025c2.485,0,4.5-2.015,4.5-4.5v-62.006h2.15
		c2.485,0,4.5-2.015,4.5-4.5v-36.104c0-2.485-2.015-4.5-4.5-4.5h-2.15V164.283h2.15c2.485,0,4.5-2.015,4.5-4.5V123.68
		C334.466,121.194,332.452,119.18,329.966,119.18z M318.631,119.18H299.75c-1.955-38.402-28.754-70.354-64.612-80.047
		c0.455-2.679,1.288-5.307,2.563-8.063c1.578-3.41,3.7-6.457,6.242-9.026C287.25,35.507,316.78,74.161,318.631,119.18z M212.303,9
		c9.676,0,19.185,1.299,28.382,3.868c-4.684,3.812-8.517,8.729-11.151,14.423c-1.538,3.323-2.59,6.612-3.196,9.945
		c-4.571-0.739-9.258-1.13-14.034-1.13c-4.776,0-9.463,0.391-14.034,1.13c-0.605-3.334-1.657-6.622-3.196-9.945
		c-2.635-5.694-6.467-10.609-11.15-14.421C193.12,10.3,202.628,9,212.303,9z M180.662,22.044c2.543,2.57,4.665,5.617,6.244,9.027
		c1.275,2.755,2.108,5.383,2.563,8.061c-35.858,9.695-62.657,41.645-64.611,80.048h-18.882
		C107.828,74.162,137.357,35.508,180.662,22.044z M124.819,415.607H105.79v-57.506h19.028V415.607z M131.469,349.102H99.141v-9.052
		h32.328V349.102z M131.469,331.05H99.141v-9.052h32.328V331.05z M105.79,312.998V164.283h19.028v148.715H105.79z M131.469,155.283
		H99.141v-9.051h32.328V155.283z M131.469,137.232H99.141v-9.053h32.328V137.232z M290.789,415.607h-156.97v-13.802h156.97V415.607z
		 M290.789,312.998h-2.15c-2.485,0-4.5,2.015-4.5,4.5v36.104c0,2.485,2.015,4.5,4.5,4.5h2.15v34.704h-156.97v-34.704h2.15
		c2.485,0,4.5-2.015,4.5-4.5v-36.104c0-2.485-2.015-4.5-4.5-4.5h-2.15V164.283h2.15c2.485,0,4.5-2.015,4.5-4.5V123.68
		c0-2.485-2.015-4.5-4.5-4.5h-2.102c2.341-41.238,36.622-74.073,78.437-74.073s76.088,32.836,78.429,74.073h-2.094
		c-2.485,0-4.5,2.015-4.5,4.5v36.104c0,2.485,2.015,4.5,4.5,4.5h2.15V312.998z M318.816,415.607h-19.027v-57.506h19.027V415.607z
		 M325.466,349.102h-32.328v-9.052h32.328V349.102z M325.466,331.05h-32.328v-9.052h32.328V331.05z M299.789,312.998V164.283h19.027
		v148.715H299.789z M325.466,155.283h-32.328v-9.051h32.328V155.283z M325.466,137.232h-32.328v-9.053h32.328V137.232z"/>
	<path style="fill:#7C5F53;" d="M277.939,302.804v-96.94c0-2.485-2.015-4.5-4.5-4.5H151.167c-2.485,0-4.5,2.015-4.5,4.5v96.94
		c0,36.191,29.444,65.636,65.636,65.636S277.939,338.995,277.939,302.804z M249.632,210.363v4.156l-1.762-4.156H249.632z
		 M249.501,237.273c0.039,0.092,0.088,0.176,0.132,0.264v6.242l-8.156,19.519l-9.65-22.767l9.46-22.639L249.501,237.273z
		 M193.436,309.055l-8.14,19.479c-5.514-5.785-9.196-13.327-10.101-21.694l8.589-20.554L193.436,309.055z M188.638,274.672
		l9.46-22.637l9.65,22.769l-9.459,22.638L188.638,274.672z M198.348,320.645l8.062,19.019c-5.016-0.799-9.697-2.602-13.84-5.193
		L198.348,320.645z M203.202,309.03l9.459-22.637l9.65,22.766l-9.46,22.638L203.202,309.03z M217.514,274.779l9.459-22.636
		l9.649,22.767l-9.459,22.636L217.514,274.779z M227.223,320.748l5.602,13.216c-4.003,2.646-8.541,4.539-13.416,5.482
		L227.223,320.748z M232.076,309.135l9.459-22.636l7.999,18.872c-0.587,8.601-4.092,16.411-9.542,22.439L232.076,309.135z
		 M246.388,274.886l3.244-7.764v15.418L246.388,274.886z M234.676,210.363l-7.763,18.577l-7.874-18.577H234.676z M222.061,240.555
		l-9.459,22.636l-9.651-22.768l9.459-22.636L222.061,240.555z M205.757,210.363l-7.719,18.47l-7.828-18.47H205.757z
		 M174.974,210.363h1.862l-1.862,4.458V210.363z M174.974,238.126c0.03-0.064,0.068-0.121,0.096-0.188l8.466-20.261l9.65,22.769
		l-9.46,22.637l-8.752-20.648V238.126z M174.974,265.499l3.898,9.197l-3.898,9.329V265.499z M212.303,359.439
		c-31.23,0-56.636-25.406-56.636-56.636v-92.44h10.307v92.44c0,25.546,20.783,46.329,46.329,46.329s46.329-20.783,46.329-46.329
		v-92.44h10.307v92.44C268.939,334.033,243.533,359.439,212.303,359.439z"/>
</g>
</svg>